<?xml version="1.0" encoding="UTF-8" standalone="no"?>
<svg
   xmlns:dc="http://purl.org/dc/elements/1.1/"
   xmlns:cc="http://creativecommons.org/ns#"
   xmlns:rdf="http://www.w3.org/1999/02/22-rdf-syntax-ns#"
   xmlns:svg="http://www.w3.org/2000/svg"
   xmlns="http://www.w3.org/2000/svg"
   xmlns:sodipodi="http://sodipodi.sourceforge.net/DTD/sodipodi-0.dtd"
   xmlns:inkscape="http://www.inkscape.org/namespaces/inkscape"
   width="200"
   height="200"
   viewBox="0 0 200 200"
   version="1.1"
   preserveAspectRatio="xMidYMid"
   id="svg4214"
   inkscape:version="0.91 r13725"
   sodipodi:docname="chrome.svg">
  <metadata
     id="metadata4243">
    <rdf:RDF>
      <cc:Work
         rdf:about="">
        <dc:format>image/svg+xml</dc:format>
        <dc:type
           rdf:resource="http://purl.org/dc/dcmitype/StillImage" />
        <dc:title></dc:title>
      </cc:Work>
    </rdf:RDF>
  </metadata>
  <sodipodi:namedview
     pagecolor="#ffffff"
     bordercolor="#666666"
     borderopacity="1"
     objecttolerance="10"
     gridtolerance="10"
     guidetolerance="10"
     inkscape:pageopacity="0"
     inkscape:pageshadow="2"
     inkscape:window-width="1920"
     inkscape:window-height="1056"
     id="namedview4241"
     showgrid="false"
     inkscape:zoom="0.91828794"
     inkscape:cx="128"
     inkscape:cy="128.5"
     inkscape:window-x="0"
     inkscape:window-y="24"
     inkscape:window-maximized="1"
     inkscape:current-layer="svg4214" />
  <defs
     id="defs4216">
    <linearGradient
       x1="127.46958"
       y1="82.259033"
       x2="127.46958"
       y2="173.66614"
       id="linearGradient-1"
       gradientUnits="userSpaceOnUse">
      <stop
         stop-color="#86BBE5"
         offset="0%"
         id="stop4219" />
      <stop
         stop-color="#1072BA"
         offset="100%"
         id="stop4221" />
    </linearGradient>
  </defs>
  <g
     id="g4223"
     transform="matrix(0.77978487,0,0,0.77978487,0.09839471,-0.00954359)">
    <path
       d="m 127.78872,0.0352132 c 0,0 75.32105,-3.3804677 115.25282,72.3279228 l -121.66162,0 c 0,0 -22.959012,-0.739477 -42.572767,27.114168 C 73.17304,111.16809 67.116369,123.211 73.912517,146.9447 64.123246,130.35928 21.937827,56.904539 21.937827,56.904539 c 0,0 29.755158,-53.8762034 105.850893,-56.8693258 l 0,0 z"
       id="path4225"
       inkscape:connector-curvature="0"
       style="fill:#ef3f36" />
    <path
       d="m 239.13288,192.22889 c 0,0 -34.75544,66.9403 -120.2531,63.63026 10.56396,-18.27566 60.84842,-105.35791 60.84842,-105.35791 0,0 12.14855,-19.50812 -2.18322,-50.42531 -7.28913,-10.740029 -14.71912,-21.973041 -38.6641,-27.959286 19.26162,-0.176066 103.94938,0 103.94938,0 0,0 31.7271,52.714166 -3.69738,120.112246 l 0,0 z"
       id="path4227"
       inkscape:connector-curvature="0"
       style="fill:#fcd900" />
    <path
       d="m 16.972765,192.75708 c 0,0 -40.600825,-63.55983 5.035488,-135.95818 10.528748,18.275653 60.813205,105.35791 60.813205,105.35791 0,0 10.845667,20.2828 44.755982,23.31114 12.92325,-0.95076 26.37469,-1.76066 43.55874,-19.4729 C 161.66382,182.75653 119.16149,256 119.16149,256 c 0,0 -61.552687,1.12682 -102.188725,-63.24292 l 0,0 z"
       id="path4229"
       inkscape:connector-curvature="0"
       style="fill:#61bc5b" />
    <path
       d="m 118.84457,256.49298 17.11361,-71.41238 c 0,0 18.80386,-1.47895 34.57937,-18.76863 -9.78927,17.21925 -51.69298,90.18101 -51.69298,90.18101 l 0,0 z"
       id="path4231"
       inkscape:connector-curvature="0"
       style="fill:#5ab055" />
    <path
       d="m 70.461623,129.0564 c 0,-31.480609 25.529574,-57.010183 57.010177,-57.010183 31.48061,0 57.01018,25.529574 57.01018,57.010183 0,31.4806 -25.52957,57.01017 -57.01018,57.01017 C 95.991197,186.03136 70.461623,160.537 70.461623,129.0564 l 0,0 z"
       id="path4233"
       inkscape:connector-curvature="0"
       style="fill:#ffffff" />
    <path
       d="m 80.004402,129.0564 c 0,-26.19863 21.233558,-47.467404 47.467398,-47.467404 26.19863,0 47.4674,21.233564 47.4674,47.467404 0,26.19862 -21.23356,47.4674 -47.4674,47.4674 -26.19862,0 -47.467398,-21.26878 -47.467398,-47.4674 l 0,0 z"
       id="path4235"
       style="fill:url(#linearGradient-1)"
       inkscape:connector-curvature="0" />
    <path
       d="m 242.79505,72.151857 -70.46163,20.670151 c 0,0 -10.63438,-15.599449 -33.48775,-20.670151 19.82503,-0.10564 103.94938,0 103.94938,0 l 0,0 z"
       id="path4237"
       inkscape:connector-curvature="0"
       style="fill:#eaca05" />
    <path
       d="M 72.539202,144.33893 C 62.644292,127.1901 21.937827,56.904539 21.937827,56.904539 L 74.123796,108.5271 c 0,0 -5.352407,11.02173 -3.345254,26.79725 l 1.76066,9.01458 0,0 z"
       id="path4239"
       inkscape:connector-curvature="0"
       style="fill:#df3a32" />
  </g>
</svg>
