<?xml version="1.0" encoding="UTF-8" standalone="no"?>
<svg
   xmlns:dc="http://purl.org/dc/elements/1.1/"
   xmlns:cc="http://creativecommons.org/ns#"
   xmlns:rdf="http://www.w3.org/1999/02/22-rdf-syntax-ns#"
   xmlns:svg="http://www.w3.org/2000/svg"
   xmlns="http://www.w3.org/2000/svg"
   xmlns:sodipodi="http://sodipodi.sourceforge.net/DTD/sodipodi-0.dtd"
   xmlns:inkscape="http://www.inkscape.org/namespaces/inkscape"
   width="200"
   height="200"
   viewBox="0 0 200 200"
   version="1.1"
   preserveAspectRatio="xMidYMid"
   id="svg4136"
   inkscape:version="0.91 r13725"
   sodipodi:docname="edge.svg">
  <metadata
     id="metadata4146">
    <rdf:RDF>
      <cc:Work
         rdf:about="">
        <dc:format>image/svg+xml</dc:format>
        <dc:type
           rdf:resource="http://purl.org/dc/dcmitype/StillImage" />
        <dc:title></dc:title>
      </cc:Work>
    </rdf:RDF>
  </metadata>
  <defs
     id="defs4144" />
  <sodipodi:namedview
     pagecolor="#ffffff"
     bordercolor="#666666"
     borderopacity="1"
     objecttolerance="10"
     gridtolerance="10"
     guidetolerance="10"
     inkscape:pageopacity="0"
     inkscape:pageshadow="2"
     inkscape:window-width="1920"
     inkscape:window-height="1056"
     id="namedview4142"
     showgrid="false"
     borderlayer="true"
     inkscape:showpageshadow="false"
     inkscape:zoom="1.6528777"
     inkscape:cx="181.2449"
     inkscape:cy="80.876631"
     inkscape:window-x="0"
     inkscape:window-y="24"
     inkscape:window-maximized="1"
     inkscape:current-layer="svg4136" />
  <g
     id="g4138"
     transform="matrix(0.72116016,0,0,0.72116016,7.6914995,-2.5412033e-4)">
    <path
       d="M 51.849279,73.453669 C 18.856525,93.991177 0,123.17598 0,123.17598 c 0,0 4.8863269,-61.195493 51.849279,-97.003383 C 70.527008,11.93137 96.062759,0 130.40855,0 c 12.90264,0 39.95956,2.2448201 64.33109,17.270627 24.37152,15.025807 34.21818,27.612261 45.19809,46.039711 4.73788,7.95152 8.59667,18.166622 11.0038,28.020182 C 255.45157,109.79225 256,131.87179 256,131.87179 l 0,29.08555 -174.178303,0 c 0,0 -4.253939,58.51931 75.849333,58.51931 27.85889,0 37.61418,-4.3765 46.77699,-7.08989 14.34416,-4.24776 28.19491,-13.71594 28.19491,-13.71594 l 0.0264,58.46777 c 0,0 -32.78323,20.19302 -82.31007,20.19302 -13.94709,0 -28.64533,-1.16973 -42.82034,-5.76872 -12.386474,-4.01871 -38.3272,-14.85853 -55.689641,-40.26345 -6.141735,-8.98666 -12.796838,-20.94507 -16.093063,-32.62862 -3.563519,-12.63097 -3.519807,-24.90164 -3.519807,-31.66193 0,-25.28423 8.63829,-49.42439 23.627964,-66.87571 19.416139,-22.604705 43.957368,-32.556332 43.957368,-32.556332 0,0 -7.993734,9.319318 -12.91078,20.922112 -4.917045,11.60279 -6.262114,23.27661 -6.262114,23.27661 l 98.351073,0 c 0,0 5.75226,-58.769469 -55.65078,-58.769469 -23.13634,0 -51.552185,8.03043 -71.499861,20.447568 l 0,0 z"
       id="path4140"
       inkscape:connector-curvature="0"
       style="fill:#3177bc" />
  </g>
</svg>
